<?xml version="1.0" encoding="utf-8"?>
<!-- Generator: Adobe Illustrator 27.7.0, SVG Export Plug-In . SVG Version: 6.00 Build 0)  -->
<svg version="1.1" id="Layer_1" xmlns="http://www.w3.org/2000/svg" xmlns:xlink="http://www.w3.org/1999/xlink" x="0px" y="0px"
	 viewBox="0 0 500 500" style="enable-background:new 0 0 500 500;" xml:space="preserve">
<style type="text/css">
	.st0{fill:#121316;stroke:#000000;stroke-miterlimit:10;}
	.st1{fill:#FFFFFF;}
</style>
<rect class="st0" width="500" height="500"/>
<path class="st1" d="M360.9,143.4L279.2,364h14.9l23-61.8h110l23.3,61.8h15.2l-82.6-220.6H360.9z M322,288.5l47.8-129.3
	c0.6-1.6,1.6-4.3,1.9-5.6c0.3,1.6,1.2,3.7,1.9,5.6l48.5,129.3H322z"/>
<path class="st1" d="M107.1,350c-32.9,0-55.6-16.8-56.9-41.9H34.4c3.4,34.5,31.4,55.9,72.7,55.9c44.1,0,72.7-23.6,72.7-60.6
	c0-28.3-17.7-48.2-51-56.5L89.7,237c-25.2-6.5-37.9-20.5-37.9-41.6c0-27.7,22.7-45.7,56.9-45.7c30.1,0,48.8,15.5,51.9,42.9h15.5
	c-4.3-35.4-29.5-56.5-67.4-56.5c-43.5,0-71.8,23.3-71.8,59.3c0,28.6,17.7,47.5,51,55.9l38.2,9.6c26.1,6.5,38.8,21.1,38.8,42.9
	C164.9,332,142.2,350,107.1,350z"/>
<rect x="222" y="143.4" class="st1" width="14.9" height="220.6"/>
</svg>
