<svg width="241" height="63" viewBox="0 0 241 63" fill="none" xmlns="http://www.w3.org/2000/svg">
<path d="M1.472 7.008C1.472 3.296 4.384 0.895998 8.864 0.895998C12.768 0.895998 15.36 3.072 15.808 6.72H14.208C13.888 3.904 11.968 2.304 8.864 2.304C5.344 2.304 3.008 4.16 3.008 7.008C3.008 9.184 4.32 10.624 6.912 11.296L10.944 12.32C14.368 13.184 16.192 15.232 16.192 18.144C16.192 21.952 13.248 24.384 8.704 24.384C4.448 24.384 1.568 22.176 1.216 18.624H2.848C2.976 21.216 5.312 22.944 8.704 22.944C12.32 22.944 14.656 21.088 14.656 18.176C14.656 15.936 13.344 14.432 10.656 13.76L6.72 12.768C3.296 11.904 1.472 9.952 1.472 7.008ZM31.001 8.64H32.473V24H31.289L31.001 21.152C30.169 23.072 27.993 24.384 25.433 24.384C21.753 24.384 19.865 21.856 19.865 18.112V8.608H21.369V17.728C21.369 21.664 23.225 23.04 25.785 23.04C29.017 23.04 31.001 20.8 31.001 16.832V8.64ZM38.8103 24H37.3383V8.64H38.5223L38.8423 11.616C39.8663 9.472 41.9783 8.256 44.2823 8.256C48.6343 8.256 50.2663 10.816 50.2663 14.656V24H48.7943V14.944C48.7943 10.88 47.0343 9.6 44.2503 9.6C40.7623 9.6 38.8103 12.192 38.8103 16.064V24ZM60.852 24.384C56.34 24.384 53.78 20.864 53.78 16.32C53.78 11.776 56.34 8.256 60.852 8.256C63.572 8.256 65.684 9.472 66.804 11.968V0.895998H68.276V24H67.092L66.868 20.544C65.716 23.168 63.508 24.384 60.852 24.384ZM61.012 23.04C64.692 23.04 66.772 20.224 66.772 16.32C66.772 12.448 64.692 9.6 61.012 9.6C57.364 9.6 55.284 12.448 55.284 16.32C55.284 20.224 57.364 23.04 61.012 23.04ZM77.5028 24.384C74.2068 24.384 72.3188 22.56 72.3188 19.936C72.3188 17.12 74.4948 15.328 78.0788 15.04L83.3588 14.624V14.048C83.3588 10.592 81.3108 9.6 78.8788 9.6C76.0308 9.6 74.3348 10.944 74.3348 13.184H72.8628C72.8628 10.176 75.2948 8.256 78.9108 8.256C82.2068 8.256 84.8308 9.856 84.8308 13.824V24H83.6468L83.3588 21.12C82.3028 23.2 80.1588 24.384 77.5028 24.384ZM77.6948 23.072C81.3108 23.072 83.3588 20.448 83.3588 16.672V15.84L78.2068 16.256C75.1028 16.512 73.7908 18.016 73.7908 19.904C73.7908 22.016 75.3908 23.072 77.6948 23.072ZM87.518 30.496V29.312H88.958C90.206 29.312 91.742 29.312 92.542 27.136L93.31 25.056L87.07 8.64H88.606L94.014 23.04L99.198 8.64H100.702L93.886 27.552C93.086 29.76 91.678 30.688 89.598 30.688C88.766 30.688 88.158 30.624 87.518 30.496ZM114.416 1.28V24H112.88V1.28H114.416ZM121.185 24H119.713V8.64H120.897L121.217 11.616C122.241 9.472 124.353 8.256 126.657 8.256C131.009 8.256 132.641 10.816 132.641 14.656V24H131.169V14.944C131.169 10.88 129.409 9.6 126.625 9.6C123.137 9.6 121.185 12.192 121.185 16.064V24ZM135.743 19.84H137.184C137.184 21.824 138.656 23.04 141.024 23.04C143.616 23.04 145.216 21.888 145.216 20C145.216 18.496 144.48 17.728 142.496 17.216L139.904 16.544C137.28 15.872 136.032 14.4 136.032 12.512C136.032 9.952 138.144 8.256 141.312 8.256C144.48 8.256 146.464 9.952 146.56 12.736H145.12C145.024 10.752 143.616 9.6 141.312 9.6C138.848 9.6 137.504 10.624 137.504 12.512C137.504 13.824 138.4 14.752 140.256 15.232L142.816 15.904C145.504 16.608 146.688 17.856 146.688 20C146.688 22.624 144.448 24.384 141.088 24.384C137.824 24.384 135.743 22.624 135.743 19.84ZM161.564 8.64H163.036V24H161.852L161.564 21.152C160.732 23.072 158.556 24.384 155.996 24.384C152.316 24.384 150.428 21.856 150.428 18.112V8.608H151.932V17.728C151.932 21.664 153.788 23.04 156.348 23.04C159.58 23.04 161.564 20.8 161.564 16.832V8.64ZM175.229 8.416V9.696H174.077C171.229 9.696 169.373 11.776 169.373 14.656V24H167.901V8.64H169.277L169.405 11.104C170.013 9.376 171.709 8.256 173.885 8.256C174.365 8.256 174.717 8.288 175.229 8.416ZM182.034 24.384C178.738 24.384 176.85 22.56 176.85 19.936C176.85 17.12 179.026 15.328 182.61 15.04L187.89 14.624V14.048C187.89 10.592 185.842 9.6 183.41 9.6C180.562 9.6 178.866 10.944 178.866 13.184H177.394C177.394 10.176 179.826 8.256 183.442 8.256C186.738 8.256 189.362 9.856 189.362 13.824V24H188.178L187.89 21.12C186.834 23.2 184.69 24.384 182.034 24.384ZM182.226 23.072C185.842 23.072 187.89 20.448 187.89 16.672V15.84L182.738 16.256C179.634 16.512 178.322 18.016 178.322 19.904C178.322 22.016 179.922 23.072 182.226 23.072ZM195.498 24H194.026V8.64H195.21L195.53 11.616C196.554 9.472 198.666 8.256 200.97 8.256C205.322 8.256 206.954 10.816 206.954 14.656V24H205.482V14.944C205.482 10.88 203.722 9.6 200.938 9.6C197.45 9.6 195.498 12.192 195.498 16.064V24ZM210.468 16.384C210.468 11.52 213.348 8.256 217.764 8.256C221.06 8.256 223.524 10.208 224.228 13.12H222.724C222.084 10.848 220.036 9.568 217.764 9.568C214.34 9.568 211.908 12.192 211.908 16.352C211.908 20.32 214.148 23.04 217.572 23.04C220.036 23.04 222.084 21.632 222.788 19.552H224.292C223.46 22.464 220.836 24.384 217.572 24.384C213.348 24.384 210.468 21.184 210.468 16.384ZM234.078 24.384C229.63 24.384 226.686 21.184 226.686 16.352C226.686 11.552 229.598 8.256 233.886 8.256C237.886 8.256 240.638 11.136 240.638 15.328V16.352H228.158C228.286 20.544 230.462 23.04 234.078 23.04C236.798 23.04 238.526 21.856 239.134 19.584H240.638C239.742 22.752 237.534 24.384 234.078 24.384ZM233.886 9.6C230.75 9.6 228.542 11.776 228.19 15.136H239.134C239.134 11.808 237.054 9.6 233.886 9.6ZM2.016 56H0.48L8.896 33.28H11.168L19.68 56H18.112L15.712 49.632H4.384L2.016 56ZM9.824 34.912L4.896 48.224H15.2L10.208 34.912C10.144 34.72 10.048 34.496 10.016 34.336C9.984 34.464 9.888 34.752 9.824 34.912ZM21.4363 47.84C21.4363 43.776 24.0603 40.256 28.6042 40.256C31.4523 40.256 33.5963 41.664 34.6203 44.224L34.8123 40.64H35.9963V55.68C35.9963 59.968 33.1483 62.848 28.8603 62.848C25.1483 62.848 22.4923 60.768 21.8523 57.248H23.2923C23.8683 59.936 25.9483 61.504 28.8923 61.504C32.2843 61.504 34.5563 59.168 34.5563 55.68V51.52C33.5003 53.984 31.2283 55.424 28.4443 55.424C24.0283 55.424 21.4363 51.904 21.4363 47.84ZM22.9403 47.84C22.9403 51.232 24.9883 54.08 28.5403 54.08C32.1883 54.08 34.3003 51.424 34.3003 47.808C34.3003 44.256 32.2843 41.6 28.6042 41.6C24.9563 41.6 22.9403 44.48 22.9403 47.84ZM47.1095 56.384C42.6615 56.384 39.7175 53.184 39.7175 48.352C39.7175 43.552 42.6295 40.256 46.9175 40.256C50.9175 40.256 53.6695 43.136 53.6695 47.328V48.352H41.1895C41.3175 52.544 43.4935 55.04 47.1095 55.04C49.8295 55.04 51.5575 53.856 52.1655 51.584H53.6695C52.7735 54.752 50.5655 56.384 47.1095 56.384ZM46.9175 41.6C43.7815 41.6 41.5735 43.776 41.2215 47.136H52.1655C52.1655 43.808 50.0855 41.6 46.9175 41.6ZM58.8415 56H57.3695V40.64H58.5535L58.8735 43.616C59.8975 41.472 62.0095 40.256 64.3135 40.256C68.6655 40.256 70.2975 42.816 70.2975 46.656V56H68.8255V46.944C68.8255 42.88 67.0655 41.6 64.2815 41.6C60.7935 41.6 58.8415 44.192 58.8415 48.064V56ZM73.8113 48.384C73.8113 43.52 76.6913 40.256 81.1073 40.256C84.4033 40.256 86.8673 42.208 87.5713 45.12H86.0673C85.4273 42.848 83.3793 41.568 81.1073 41.568C77.6833 41.568 75.2513 44.192 75.2513 48.352C75.2513 52.32 77.4913 55.04 80.9153 55.04C83.3793 55.04 85.4273 53.632 86.1313 51.552H87.6353C86.8033 54.464 84.1793 56.384 80.9153 56.384C76.6913 56.384 73.8113 53.184 73.8113 48.384ZM89.2055 62.496V61.312H90.6455C91.8935 61.312 93.4295 61.312 94.2295 59.136L94.9975 57.056L88.7575 40.64H90.2935L95.7015 55.04L100.886 40.64H102.39L95.5735 59.552C94.7735 61.76 93.3655 62.688 91.2855 62.688C90.4535 62.688 89.8455 62.624 89.2055 62.496Z" fill="#000000"/>
</svg>
