<svg width="64" height="64" viewBox="0 0 64 64" fill="none" xmlns="http://www.w3.org/2000/svg">
<path d="M32 6C26.8577 6 21.8309 7.52487 17.5552 10.3818C13.2795 13.2387 9.94702 17.2994 7.97914 22.0502C6.01127 26.8011 5.49638 32.0288 6.49959 37.0723C7.50281 42.1159 9.97907 46.7486 13.6152 50.3848C17.2514 54.0209 21.8842 56.4972 26.9277 57.5004C31.9712 58.5036 37.1989 57.9887 41.9498 56.0209C46.7007 54.053 50.7613 50.7205 53.6182 46.4448C56.4751 42.1691 58 37.1423 58 32C57.9927 25.1066 55.2511 18.4976 50.3767 13.6233C45.5024 8.74889 38.8934 6.00728 32 6ZM42 36C42 36.5304 41.7893 37.0391 41.4142 37.4142C41.0392 37.7893 40.5304 38 40 38C39.4696 38 38.9609 37.7893 38.5858 37.4142C38.2107 37.0391 38 36.5304 38 36V28.8275L25.415 41.415C25.2292 41.6008 25.0086 41.7482 24.7658 41.8488C24.523 41.9494 24.2628 42.0011 24 42.0011C23.7372 42.0011 23.477 41.9494 23.2342 41.8488C22.9914 41.7482 22.7708 41.6008 22.585 41.415C22.3992 41.2292 22.2518 41.0086 22.1512 40.7658C22.0507 40.523 21.9989 40.2628 21.9989 40C21.9989 39.7372 22.0507 39.477 22.1512 39.2342C22.2518 38.9914 22.3992 38.7708 22.585 38.585L35.1725 26H28C27.4696 26 26.9609 25.7893 26.5858 25.4142C26.2107 25.0391 26 24.5304 26 24C26 23.4696 26.2107 22.9609 26.5858 22.5858C26.9609 22.2107 27.4696 22 28 22H40C40.5304 22 41.0392 22.2107 41.4142 22.5858C41.7893 22.9609 42 23.4696 42 24V36Z" fill="white"/>
</svg>
