<svg width="247" height="247" viewBox="0 0 247 247" fill="none" xmlns="http://www.w3.org/2000/svg">
<path d="M206.149 79.4452L152.117 25.414C151.4 24.6974 150.548 24.1292 149.611 23.7418C148.674 23.3544 147.67 23.1555 146.656 23.1563H54.0312C49.937 23.1563 46.0104 24.7827 43.1153 27.6778C40.2202 30.5729 38.5938 34.4995 38.5938 38.5938V208.406C38.5938 212.501 40.2202 216.427 43.1153 219.322C46.0104 222.217 49.937 223.844 54.0312 223.844H192.969C197.063 223.844 200.99 222.217 203.885 219.322C206.78 216.427 208.406 212.501 208.406 208.406V84.9062C208.407 83.8923 208.208 82.8882 207.821 81.9511C207.433 81.0141 206.865 80.1626 206.149 79.4452ZM154.375 169.812H92.625C90.5779 169.812 88.6146 168.999 87.167 167.552C85.7195 166.104 84.9062 164.141 84.9062 162.094C84.9062 160.047 85.7195 158.083 87.167 156.636C88.6146 155.188 90.5779 154.375 92.625 154.375H154.375C156.422 154.375 158.385 155.188 159.833 156.636C161.281 158.083 162.094 160.047 162.094 162.094C162.094 164.141 161.281 166.104 159.833 167.552C158.385 168.999 156.422 169.812 154.375 169.812ZM154.375 138.938H92.625C90.5779 138.938 88.6146 138.124 87.167 136.677C85.7195 135.229 84.9062 133.266 84.9062 131.219C84.9062 129.172 85.7195 127.208 87.167 125.761C88.6146 124.313 90.5779 123.5 92.625 123.5H154.375C156.422 123.5 158.385 124.313 159.833 125.761C161.281 127.208 162.094 129.172 162.094 131.219C162.094 133.266 161.281 135.229 159.833 136.677C158.385 138.124 156.422 138.938 154.375 138.938ZM146.656 84.9062V42.4531L189.109 84.9062H146.656Z" fill="#3D57D9" fill-opacity="0.8"/>
</svg>
