<svg width="288" height="288" viewBox="0 0 288 288" fill="none" xmlns="http://www.w3.org/2000/svg">
<path d="M243 72.0001H165.724L204.368 33.3676C206.056 31.6789 207.005 29.3884 207.005 27.0001C207.005 24.6118 206.056 22.3214 204.368 20.6326C202.679 18.9439 200.388 17.9951 198 17.9951C195.612 17.9951 193.321 18.9439 191.632 20.6326L144 68.2764L96.3675 20.6326C95.5313 19.7964 94.5386 19.1331 93.4461 18.6806C92.3535 18.228 91.1826 17.9951 90 17.9951C88.8174 17.9951 87.6465 18.228 86.5539 18.6806C85.4614 19.1331 84.4687 19.7964 83.6325 20.6326C81.9437 22.3214 80.995 24.6118 80.995 27.0001C80.995 29.3884 81.9437 31.6789 83.6325 33.3676L122.276 72.0001H45C40.2261 72.0001 35.6477 73.8965 32.2721 77.2722C28.8964 80.6479 27 85.2262 27 90.0001V225C27 229.774 28.8964 234.352 32.2721 237.728C35.6477 241.104 40.2261 243 45 243H243C247.774 243 252.352 241.104 255.728 237.728C259.104 234.352 261 229.774 261 225V90.0001C261 85.2262 259.104 80.6479 255.728 77.2722C252.352 73.8965 247.774 72.0001 243 72.0001ZM243 225H45V90.0001H243V225ZM225 112.5V202.5C225 203.694 224.526 204.838 223.682 205.682C222.838 206.526 221.693 207 220.5 207H67.5C66.3065 207 65.1619 206.526 64.318 205.682C63.4741 204.838 63 203.694 63 202.5V112.5C63 111.307 63.4741 110.162 64.318 109.318C65.1619 108.474 66.3065 108 67.5 108H220.5C221.693 108 222.838 108.474 223.682 109.318C224.526 110.162 225 111.307 225 112.5Z" fill="#3D57D9"/>
</svg>
