<svg width="32" height="32" viewBox="0 0 32 32" fill="none" xmlns="http://www.w3.org/2000/svg">
<path d="M27 7.99995H18.4137L22.7075 3.70745C22.8951 3.51981 23.0006 3.26531 23.0006 2.99995C23.0006 2.73458 22.8951 2.48009 22.7075 2.29245C22.5199 2.10481 22.2654 1.99939 22 1.99939C21.7346 1.99939 21.4801 2.10481 21.2925 2.29245L16 7.5862L10.7075 2.29245C10.6146 2.19954 10.5043 2.12584 10.3829 2.07555C10.2615 2.02527 10.1314 1.99939 10 1.99939C9.86861 1.99939 9.7385 2.02527 9.6171 2.07555C9.49571 2.12584 9.38541 2.19954 9.2925 2.29245C9.10486 2.48009 8.99944 2.73458 8.99944 2.99995C8.99944 3.26531 9.10486 3.51981 9.2925 3.70745L13.5863 7.99995H5C4.46957 7.99995 3.96086 8.21066 3.58579 8.58573C3.21071 8.96081 3 9.46951 3 9.99995V24.9999C3 25.5304 3.21071 26.0391 3.58579 26.4142C3.96086 26.7892 4.46957 26.9999 5 26.9999H27C27.5304 26.9999 28.0391 26.7892 28.4142 26.4142C28.7893 26.0391 29 25.5304 29 24.9999V9.99995C29 9.46951 28.7893 8.96081 28.4142 8.58573C28.0391 8.21066 27.5304 7.99995 27 7.99995ZM27 24.9999H5V9.99995H27V24.9999Z" fill="#3D57DA"/>
</svg>
