<svg width="230" height="229" viewBox="0 0 230 229" fill="none" xmlns="http://www.w3.org/2000/svg">
<path d="M158.125 185.383C163.083 183.438 167.888 181.126 172.5 178.468V214.688C172.5 216.585 171.743 218.406 170.395 219.748C169.047 221.09 167.219 221.844 165.312 221.844C163.406 221.844 161.578 221.09 160.23 219.748C158.882 218.406 158.125 216.585 158.125 214.688V185.383ZM168.691 106.279L118.378 79.5596C116.699 78.706 114.751 78.543 112.953 79.1059C111.155 79.6687 109.651 80.9123 108.765 82.5688C107.879 84.2252 107.682 86.1619 108.216 87.9616C108.751 89.7613 109.974 91.28 111.622 92.1904L153.633 114.5L168.906 106.396L168.691 106.279ZM226.191 79.5596L118.378 22.3096C117.338 21.7583 116.178 21.47 115 21.47C113.822 21.47 112.662 21.7583 111.622 22.3096L3.80933 79.5596C2.65937 80.1698 1.69764 81.0798 1.02704 82.1922C0.356445 83.3046 0.00219727 84.5776 0.00219727 85.875C0.00219727 87.1724 0.356445 88.4454 1.02704 89.5578C1.69764 90.6703 2.65937 91.5802 3.80933 92.1904L28.75 105.438V148.752C28.7425 152.267 30.0418 155.66 32.3976 158.278C44.1671 171.33 70.5363 193.219 115 193.219C129.743 193.34 144.376 190.681 158.125 185.383V116.888L153.633 114.5L115 135.012L39.3785 94.8203L22.4609 85.875L115 36.7384L207.539 85.875L190.666 94.8203H190.612L168.906 106.396C169.999 107.024 170.907 107.927 171.537 109.016C172.168 110.104 172.5 111.338 172.5 112.595V178.468C181.873 173.081 190.342 166.269 197.602 158.278C199.958 155.66 201.257 152.267 201.25 148.752V105.438L226.191 92.1904C227.341 91.5802 228.302 90.6703 228.973 89.5578C229.643 88.4454 229.998 87.1724 229.998 85.875C229.998 84.5776 229.643 83.3046 228.973 82.1922C228.302 81.0798 227.341 80.1698 226.191 79.5596Z" fill="#3D57D9"/>
</svg>
