<svg width="32" height="32" viewBox="0 0 32 32" fill="none" xmlns="http://www.w3.org/2000/svg">
<path d="M31.47 11.1175L16.47 3.11746C16.3253 3.04042 16.1639 3.00012 16 3.00012C15.8361 3.00012 15.6747 3.04042 15.53 3.11746L0.529993 11.1175C0.369998 11.2027 0.236194 11.3299 0.142893 11.4853C0.0495918 11.6408 0.000305176 11.8187 0.000305176 12C0.000305176 12.1813 0.0495918 12.3591 0.142893 12.5146C0.236194 12.67 0.369998 12.7972 0.529993 12.8825L3.99999 14.7337V20.7862C3.99895 21.2774 4.17973 21.7516 4.50749 22.1175C6.14499 23.9412 9.81374 27 16 27C18.0512 27.0169 20.087 26.6454 22 25.905V30C22 30.2652 22.1053 30.5195 22.2929 30.7071C22.4804 30.8946 22.7348 31 23 31C23.2652 31 23.5196 30.8946 23.7071 30.7071C23.8946 30.5195 24 30.2652 24 30V24.9387C25.304 24.1859 26.4824 23.234 27.4925 22.1175C27.8203 21.7516 28.001 21.2774 28 20.7862V14.7337L31.47 12.8825C31.63 12.7972 31.7638 12.67 31.8571 12.5146C31.9504 12.3591 31.9997 12.1813 31.9997 12C31.9997 11.8187 31.9504 11.6408 31.8571 11.4853C31.7638 11.3299 31.63 11.2027 31.47 11.1175ZM16 25C10.5912 25 7.40999 22.3575 5.99999 20.7862V15.8L15.53 20.8825C15.6747 20.9595 15.8361 20.9998 16 20.9998C16.1639 20.9998 16.3253 20.9595 16.47 20.8825L22 17.9337V23.7262C20.425 24.4612 18.44 25 16 25ZM26 20.7812C25.4006 21.4464 24.7299 22.0437 24 22.5625V16.8662L26 15.8V20.7812ZM23.5 14.8675L23.4725 14.8512L16.4725 11.1175C16.2389 10.9982 15.9679 10.9754 15.7177 11.054C15.4675 11.1327 15.2583 11.3065 15.135 11.5379C15.0117 11.7694 14.9843 12.04 15.0587 12.2915C15.133 12.543 15.3032 12.7552 15.5325 12.8825L21.375 16L16 18.8662L3.12499 12L16 5.13371L28.875 12L23.5 14.8675Z" fill="#3D57DA"/>
</svg>
