<svg width="291" height="291" viewBox="0 0 291 291" fill="none" xmlns="http://www.w3.org/2000/svg">
<path d="M227.344 27.2812H63.6562C58.8326 27.2813 54.2066 29.1974 50.7957 32.6082C47.3849 36.0191 45.4688 40.6451 45.4688 45.4688V245.531C45.4688 250.355 47.3849 254.981 50.7957 258.392C54.2066 261.803 58.8326 263.719 63.6562 263.719H227.344C232.167 263.719 236.793 261.803 240.204 258.392C243.615 254.981 245.531 250.355 245.531 245.531V45.4688C245.531 40.6451 243.615 36.0191 240.204 32.6082C236.793 29.1974 232.167 27.2813 227.344 27.2812ZM100.031 227.344C97.3334 227.344 94.6961 226.544 92.4529 225.045C90.2097 223.546 88.4614 221.416 87.429 218.923C86.3965 216.431 86.1264 213.688 86.6527 211.042C87.1791 208.396 88.4782 205.965 90.3859 204.058C92.2935 202.15 94.7241 200.851 97.3701 200.325C100.016 199.798 102.759 200.068 105.251 201.101C107.744 202.133 109.874 203.882 111.373 206.125C112.872 208.368 113.672 211.005 113.672 213.703C113.672 217.321 112.235 220.79 109.677 223.348C107.119 225.907 103.649 227.344 100.031 227.344ZM100.031 181.875C97.3334 181.875 94.6961 181.075 92.4529 179.576C90.2097 178.077 88.4614 175.947 87.429 173.454C86.3965 170.962 86.1264 168.219 86.6527 165.573C87.1791 162.927 88.4782 160.497 90.3859 158.589C92.2935 156.681 94.7241 155.382 97.3701 154.856C100.016 154.33 102.759 154.6 105.251 155.632C107.744 156.665 109.874 158.413 111.373 160.656C112.872 162.899 113.672 165.537 113.672 168.234C113.672 171.852 112.235 175.322 109.677 177.88C107.119 180.438 103.649 181.875 100.031 181.875ZM145.5 227.344C142.802 227.344 140.165 226.544 137.922 225.045C135.678 223.546 133.93 221.416 132.898 218.923C131.865 216.431 131.595 213.688 132.121 211.042C132.648 208.396 133.947 205.965 135.855 204.058C137.762 202.15 140.193 200.851 142.839 200.325C145.485 199.798 148.228 200.068 150.72 201.101C153.213 202.133 155.343 203.882 156.842 206.125C158.341 208.368 159.141 211.005 159.141 213.703C159.141 217.321 157.703 220.79 155.145 223.348C152.587 225.907 149.118 227.344 145.5 227.344ZM145.5 181.875C142.802 181.875 140.165 181.075 137.922 179.576C135.678 178.077 133.93 175.947 132.898 173.454C131.865 170.962 131.595 168.219 132.121 165.573C132.648 162.927 133.947 160.497 135.855 158.589C137.762 156.681 140.193 155.382 142.839 154.856C145.485 154.33 148.228 154.6 150.72 155.632C153.213 156.665 155.343 158.413 156.842 160.656C158.341 162.899 159.141 165.537 159.141 168.234C159.141 171.852 157.703 175.322 155.145 177.88C152.587 180.438 149.118 181.875 145.5 181.875ZM190.969 227.344C188.271 227.344 185.634 226.544 183.39 225.045C181.147 223.546 179.399 221.416 178.366 218.923C177.334 216.431 177.064 213.688 177.59 211.042C178.117 208.396 179.416 205.965 181.323 204.058C183.231 202.15 185.662 200.851 188.308 200.325C190.954 199.798 193.696 200.068 196.189 201.101C198.681 202.133 200.812 203.882 202.311 206.125C203.809 208.368 204.609 211.005 204.609 213.703C204.609 217.321 203.172 220.79 200.614 223.348C198.056 225.907 194.586 227.344 190.969 227.344ZM190.969 181.875C188.271 181.875 185.634 181.075 183.39 179.576C181.147 178.077 179.399 175.947 178.366 173.454C177.334 170.962 177.064 168.219 177.59 165.573C178.117 162.927 179.416 160.497 181.323 158.589C183.231 156.681 185.662 155.382 188.308 154.856C190.954 154.33 193.696 154.6 196.189 155.632C198.681 156.665 200.812 158.413 202.311 160.656C203.809 162.899 204.609 165.537 204.609 168.234C204.609 171.852 203.172 175.322 200.614 177.88C198.056 180.438 194.586 181.875 190.969 181.875ZM209.156 118.219C209.156 120.631 208.198 122.944 206.493 124.649C204.787 126.354 202.474 127.312 200.062 127.312H90.9375C88.5257 127.312 86.2127 126.354 84.5072 124.649C82.8018 122.944 81.8438 120.631 81.8438 118.219V72.75C81.8438 70.3382 82.8018 68.0252 84.5072 66.3197C86.2127 64.6143 88.5257 63.6562 90.9375 63.6562H200.062C202.474 63.6562 204.787 64.6143 206.493 66.3197C208.198 68.0252 209.156 70.3382 209.156 72.75V118.219Z" fill="#3D57D9"/>
</svg>
